 <svg>
            <symbol
              fill="none"
              viewBox="0 0 21 21"
              id="svg-7b92qd57c"
              xmlns="http://www.w3.org/2000/svg"
            >
              <path
                fill="#000"
                d="M0 0h1.615v1.615H0zM0 1.615h1.615V3.23H0zM0 3.231h1.615v1.615H0zM0 4.846h1.615v1.615H0zM0 6.461h1.615v1.615H0zM0 8.077h1.615v1.615H0zM0 9.692h1.615v1.615H0zM0 11.308h1.615v1.615H0zM0 12.923h1.615v1.615H0zM0 14.539h1.615v1.615H0zM0 16.154h1.615v1.615H0zM0 17.769h1.615v1.615H0zM0 19.385h1.615V21H0zM17.77 0v1.615h-1.616V0zM16.154 0v1.615h-1.615V0zM14.539 0v1.615h-1.615V0zM12.923 0v1.615h-1.615V0zM11.308 0v1.615H9.693V0zM9.692 0v1.615H8.077V0zM8.077 0v1.615H6.462V0zM6.462 0v1.615H4.847V0zM4.846 0v1.615H3.231V0zM3.23 0v1.615H1.617V0zM19.385 1.616V3.23H17.77V1.616zM4.846 3.23v1.616H3.231V3.23zM4.846 1.615V3.23H3.231V1.615zM4.846 4.846v1.615H3.231V4.846zM16.154 3.231v1.615h-1.615V3.231zM16.154 1.615V3.23H14.54V1.615zM16.154 4.846v1.615H14.54V4.846zM12.923 3.23v1.616h-1.615V3.23zM12.923 1.615V3.23h-1.615V1.615zM12.923 4.846v1.615h-1.615V4.846zM16.154 6.462v1.615H14.54V6.462zM14.539 6.462v1.615h-1.615V6.462zM12.924 6.461v1.615h-1.615V6.461zM11.308 6.462v1.615H9.693V6.462zM9.693 6.461v1.615H8.078V6.461zM8.077 6.462v1.615H6.462V6.462zM6.462 6.462v1.615H4.847V6.462zM4.847 6.461v1.615H3.232V6.461zM17.769 11.307v1.615h-1.615v-1.615zM16.154 11.308v1.615h-1.616v-1.615zM14.538 11.308v1.615h-1.615v-1.615zM12.923 11.307v1.615h-1.615v-1.615zM11.307 11.308v1.615H9.692v-1.615zM9.692 11.307v1.615H8.077v-1.615zM8.076 11.308v1.615H6.461v-1.615zM6.461 11.308v1.615H4.846v-1.615zM4.846 11.307v1.615H3.23v-1.615zM17.77 12.923v1.615h-1.616v-1.615zM4.846 12.923v1.615H3.231v-1.615z"
              />
              <path
                fill="#000"
                d="M17.769 14.538v1.615h-1.615v-1.615zM4.846 14.538v1.615H3.23v-1.615zM17.769 16.154v1.615h-1.615v-1.615zM4.846 16.154v1.615H3.23v-1.615zM4.846 17.769v1.615H3.231v-1.615zM17.77 17.769v1.615h-1.616v-1.615zM19.384 19.385V21H17.77v-1.615zM17.769 19.385V21h-1.615v-1.615zM16.154 19.385V21h-1.615v-1.615zM14.538 19.385V21h-1.615v-1.615zM12.923 19.385V21h-1.615v-1.615zM11.307 19.385V21H9.692v-1.615zM9.692 19.384V21H8.077v-1.615zM8.077 19.385V21H6.462v-1.615zM6.461 19.385V21H4.846v-1.615zM4.846 19.385V21H3.23v-1.615zM3.23 19.385V21H1.617v-1.615zM21 21h-1.615v-1.615H21zM21 19.385h-1.615V17.77H21zM21 17.769h-1.615v-1.615H21zM21 16.154h-1.615v-1.615H21zM21 14.538h-1.615v-1.615H21zM21 12.923h-1.615v-1.615H21zM21 11.307h-1.615V9.692H21z"
              />
              <path
                fill="#000"
                d="M21 9.693h-1.615V8.078H21zM21 8.077h-1.615V6.462H21zM21 6.462h-1.615V4.847H21zM21 4.846h-1.615V3.231H21z"
              />
            </symbol>
          </svg> 

<svg width="21" height="21" viewBox="0 0 21 21" fill="none" xmlns="http://www.w3.org/2000/svg">
<rect width="1.61538" height="1.61538" fill="black"/>
<rect y="1.61523" width="1.61538" height="1.61538" fill="black"/>
<rect y="3.23096" width="1.61538" height="1.61538" fill="black"/>
<rect y="4.84619" width="1.61538" height="1.61538" fill="black"/>
<rect y="6.46143" width="1.61538" height="1.61538" fill="black"/>
<rect y="8.07715" width="1.61538" height="1.61538" fill="black"/>
<rect y="9.69238" width="1.61538" height="1.61538" fill="black"/>
<rect y="11.3076" width="1.61538" height="1.61538" fill="black"/>
<rect y="12.9229" width="1.61538" height="1.61538" fill="black"/>
<rect y="14.5386" width="1.61538" height="1.61538" fill="black"/>
<rect y="16.1538" width="1.61538" height="1.61538" fill="black"/>
<rect y="17.769" width="1.61538" height="1.61538" fill="black"/>
<rect y="19.3848" width="1.61538" height="1.61538" fill="black"/>
<rect x="17.7692" width="1.61538" height="1.61538" transform="rotate(90 17.7692 0)" fill="black"/>
<rect x="16.1539" width="1.61538" height="1.61538" transform="rotate(90 16.1539 0)" fill="black"/>
<rect x="14.5385" width="1.61538" height="1.61538" transform="rotate(90 14.5385 0)" fill="black"/>
<rect x="12.9231" width="1.61538" height="1.61538" transform="rotate(90 12.9231 0)" fill="black"/>
<rect x="11.3077" width="1.61538" height="1.61538" transform="rotate(90 11.3077 0)" fill="black"/>
<rect x="9.69232" width="1.61538" height="1.61538" transform="rotate(90 9.69232 0)" fill="black"/>
<rect x="8.0769" width="1.61538" height="1.61538" transform="rotate(90 8.0769 0)" fill="black"/>
<rect x="6.46155" width="1.61538" height="1.61538" transform="rotate(90 6.46155 0)" fill="black"/>
<rect x="4.84613" width="1.61538" height="1.61538" transform="rotate(90 4.84613 0)" fill="black"/>
<rect x="3.23077" width="1.61538" height="1.61538" transform="rotate(90 3.23077 0)" fill="black"/>
<rect x="19.3846" y="1.61523" width="1.61538" height="1.61538" transform="rotate(90 19.3846 1.61523)" fill="black"/>
<rect x="4.84613" y="3.23096" width="1.61538" height="1.61538" transform="rotate(90 4.84613 3.23096)" fill="black"/>
<rect x="4.84613" y="1.61523" width="1.61538" height="1.61538" transform="rotate(90 4.84613 1.61523)" fill="black"/>
<rect x="4.84613" y="4.84619" width="1.61538" height="1.61538" transform="rotate(90 4.84613 4.84619)" fill="black"/>
<rect x="16.1539" y="3.23096" width="1.61538" height="1.61538" transform="rotate(90 16.1539 3.23096)" fill="black"/>
<rect x="16.1539" y="1.61523" width="1.61538" height="1.61538" transform="rotate(90 16.1539 1.61523)" fill="black"/>
<rect x="16.1539" y="4.84619" width="1.61538" height="1.61538" transform="rotate(90 16.1539 4.84619)" fill="black"/>
<rect x="12.9231" y="3.23096" width="1.61538" height="1.61538" transform="rotate(90 12.9231 3.23096)" fill="black"/>
<rect x="12.9231" y="1.61523" width="1.61538" height="1.61538" transform="rotate(90 12.9231 1.61523)" fill="black"/>
<rect x="12.9231" y="4.84619" width="1.61538" height="1.61538" transform="rotate(90 12.9231 4.84619)" fill="black"/>
<rect x="16.1539" y="6.46143" width="1.61538" height="1.61538" transform="rotate(90 16.1539 6.46143)" fill="black"/>
<rect x="14.5385" y="6.46143" width="1.61538" height="1.61538" transform="rotate(90 14.5385 6.46143)" fill="black"/>
<rect x="12.9231" y="6.46143" width="1.61538" height="1.61538" transform="rotate(90 12.9231 6.46143)" fill="black"/>
<rect x="11.3077" y="6.46143" width="1.61538" height="1.61538" transform="rotate(90 11.3077 6.46143)" fill="black"/>
<rect x="9.69232" y="6.46143" width="1.61538" height="1.61538" transform="rotate(90 9.69232 6.46143)" fill="black"/>
<rect x="8.0769" y="6.46143" width="1.61538" height="1.61538" transform="rotate(90 8.0769 6.46143)" fill="black"/>
<rect x="6.46155" y="6.46143" width="1.61538" height="1.61538" transform="rotate(90 6.46155 6.46143)" fill="black"/>
<rect x="4.84613" y="6.46143" width="1.61538" height="1.61538" transform="rotate(90 4.84613 6.46143)" fill="black"/>
<rect x="17.7692" y="11.3076" width="1.61538" height="1.61538" transform="rotate(90 17.7692 11.3076)" fill="black"/>
<rect x="16.1539" y="11.3076" width="1.61538" height="1.61538" transform="rotate(90 16.1539 11.3076)" fill="black"/>
<rect x="14.5385" y="11.3076" width="1.61538" height="1.61538" transform="rotate(90 14.5385 11.3076)" fill="black"/>
<rect x="12.9231" y="11.3076" width="1.61538" height="1.61538" transform="rotate(90 12.9231 11.3076)" fill="black"/>
<rect x="11.3077" y="11.3076" width="1.61538" height="1.61538" transform="rotate(90 11.3077 11.3076)" fill="black"/>
<rect x="9.69232" y="11.3076" width="1.61538" height="1.61538" transform="rotate(90 9.69232 11.3076)" fill="black"/>
<rect x="8.0769" y="11.3076" width="1.61538" height="1.61538" transform="rotate(90 8.0769 11.3076)" fill="black"/>
<rect x="6.46155" y="11.3076" width="1.61538" height="1.61538" transform="rotate(90 6.46155 11.3076)" fill="black"/>
<rect x="4.84613" y="11.3076" width="1.61538" height="1.61538" transform="rotate(90 4.84613 11.3076)" fill="black"/>
<rect x="17.7692" y="12.9229" width="1.61538" height="1.61538" transform="rotate(90 17.7692 12.9229)" fill="black"/>
<rect x="4.84613" y="12.9229" width="1.61538" height="1.61538" transform="rotate(90 4.84613 12.9229)" fill="black"/>
<rect x="17.7692" y="14.5386" width="1.61538" height="1.61538" transform="rotate(90 17.7692 14.5386)" fill="black"/>
<rect x="4.84613" y="14.5386" width="1.61538" height="1.61538" transform="rotate(90 4.84613 14.5386)" fill="black"/>
<rect x="17.7692" y="16.1538" width="1.61538" height="1.61538" transform="rotate(90 17.7692 16.1538)" fill="black"/>
<rect x="4.84613" y="16.1538" width="1.61538" height="1.61538" transform="rotate(90 4.84613 16.1538)" fill="black"/>
<rect x="4.84613" y="17.769" width="1.61538" height="1.61538" transform="rotate(90 4.84613 17.769)" fill="black"/>
<rect x="17.7692" y="17.769" width="1.61538" height="1.61538" transform="rotate(90 17.7692 17.769)" fill="black"/>
<rect x="19.3846" y="19.3848" width="1.61538" height="1.61538" transform="rotate(90 19.3846 19.3848)" fill="black"/>
<rect x="17.7692" y="19.3848" width="1.61538" height="1.61538" transform="rotate(90 17.7692 19.3848)" fill="black"/>
<rect x="16.1539" y="19.3848" width="1.61538" height="1.61538" transform="rotate(90 16.1539 19.3848)" fill="black"/>
<rect x="14.5385" y="19.3848" width="1.61538" height="1.61538" transform="rotate(90 14.5385 19.3848)" fill="black"/>
<rect x="12.9231" y="19.3848" width="1.61538" height="1.61538" transform="rotate(90 12.9231 19.3848)" fill="black"/>
<rect x="11.3077" y="19.3848" width="1.61538" height="1.61538" transform="rotate(90 11.3077 19.3848)" fill="black"/>
<rect x="9.69232" y="19.3848" width="1.61538" height="1.61538" transform="rotate(90 9.69232 19.3848)" fill="black"/>
<rect x="8.0769" y="19.3848" width="1.61538" height="1.61538" transform="rotate(90 8.0769 19.3848)" fill="black"/>
<rect x="6.46155" y="19.3848" width="1.61538" height="1.61538" transform="rotate(90 6.46155 19.3848)" fill="black"/>
<rect x="4.84613" y="19.3848" width="1.61538" height="1.61538" transform="rotate(90 4.84613 19.3848)" fill="black"/>
<rect x="3.23077" y="19.3848" width="1.61538" height="1.61538" transform="rotate(90 3.23077 19.3848)" fill="black"/>
<rect x="21" y="21" width="1.61538" height="1.61538" transform="rotate(-180 21 21)" fill="black"/>
<rect x="21" y="19.3848" width="1.61538" height="1.61538" transform="rotate(-180 21 19.3848)" fill="black"/>
<rect x="21" y="17.769" width="1.61538" height="1.61538" transform="rotate(-180 21 17.769)" fill="black"/>
<rect x="21" y="16.1538" width="1.61538" height="1.61538" transform="rotate(-180 21 16.1538)" fill="black"/>
<rect x="21" y="14.5386" width="1.61538" height="1.61538" transform="rotate(-180 21 14.5386)" fill="black"/>
<rect x="21" y="12.9229" width="1.61538" height="1.61538" transform="rotate(-180 21 12.9229)" fill="black"/>
<rect x="21" y="11.3076" width="1.61538" height="1.61538" transform="rotate(-180 21 11.3076)" fill="black"/>
<rect x="21" y="9.69238" width="1.61538" height="1.61538" transform="rotate(-180 21 9.69238)" fill="black"/>
<rect x="21" y="8.07715" width="1.61538" height="1.61538" transform="rotate(-180 21 8.07715)" fill="black"/>
<rect x="21" y="6.46143" width="1.61538" height="1.61538" transform="rotate(-180 21 6.46143)" fill="black"/>
<rect x="21" y="4.84619" width="1.61538" height="1.61538" transform="rotate(-180 21 4.84619)" fill="black"/>
</svg>

